<svg aria-hidden="true" style="position:absolute;width:0;height:0" xmlns="http://www.w3.org/2000/svg" overflow="hidden"><defs><symbol id="icon-cat" viewBox="0 0 32 32"><path fill="var(--color1, #e8c2d8)" d="M26.573 28.088a13.204 13.204 0 00-.412-6.222c-.515-1.612-.725-3.307-.562-4.992a8.326 8.326 0 00-1.461-5.588c.152-1.002.581-4.368-.435-4.856-.757-.364-2.261.898-3.262 1.873a8.28 8.28 0 00-3.076-.634 8.358 8.358 0 00-3.637.772c-.996-.988-2.609-2.391-3.402-2.01-1.196.574-.39 5.137-.39 5.137l.326-.156a8.35 8.35 0 00-1.378 5.308 12.376 12.376 0 01-.601 4.945 12.95 12.95 0 00-.675 4.153c0 .871.085 1.718.244 2.532a2.28 2.28 0 01-2.246-2.276v-1.542a1.512 1.512 0 00-3.024 0v1.542a5.307 5.307 0 005.301 5.301l.059-.001.897-.035.007.015h16.683l.018-.038v.031c1.191 0 2.156-.775 2.156-1.732 0-.659-.458-1.231-1.131-1.524z"/><path fill="var(--color2, #d789b9)" d="M18.165 15.107c0 .586-.437 1.061-.976 1.061s-.976-.475-.976-1.061l.965-.777z"/><path fill="var(--color3, #d392d8)" d="M26.573 28.088a13.204 13.204 0 00-.412-6.222 12.912 12.912 0 01-.555-5.066 8.326 8.326 0 00-1.468-5.515c.152-1.002.581-4.368-.435-4.856-.4-.192-1.009.07-1.643.504.362 1.003.099 3.059-.008 3.769a7.385 7.385 0 011.277 4.926 11.084 11.084 0 00.491 4.4c.343 1.083.531 2.234.626 3.456.052.675.007 1.788-.028 2.441s-.475 2.456-1.958 2.456l-10.696.007a4.113 4.113 0 01-4.096-3.689l-.007-.072c-.035.391-.054.788-.054 1.19 0 2.012.451 3.9 1.239 5.534h16.683l.018-.038v.031c1.191 0 2.156-.775 2.156-1.732 0-.659-.458-1.231-1.131-1.524z"/><path fill="var(--color4, #f6e06e)" d="M15.663 9.391c0-.021 0-.043.003-.065-.046-.831.141-1.571.666-2.179-.07-.928.111-1.672.659-2.154.203-1.052.564-2.187 1.034-3.381.056-.183.323-.15.333.041.164 1.021.255 1.975.142 2.742.304.588.363 1.202.096 1.855.257.599.324 1.239.101 1.939.359.621.189 1.234.133 1.522-.248.972-3.152.629-3.168-.32z"/><path fill="var(--color5, #dda86a)" d="M15.663 8.964c0-.021 0-.043.003-.065-.032-.59.053-1.134.293-1.618a3.267 3.267 0 00-.008.476.52.52 0 00-.003.055c.012.809 2.567 1.095 2.787.265.01-.047.023-.105.036-.172.259.57.11 1.112.059 1.378-.248.972-3.152.629-3.168-.32z"/><path fill="var(--color6, #e9c3d9)" d="M3.453.397l.539 1.517a.242.242 0 00.127.142l1.348.607c.19.086.19.389 0 .475l-1.348.607a.245.245 0 00-.127.142l-.539 1.517c-.076.214-.346.214-.422 0l-.539-1.517a.242.242 0 00-.127-.142l-1.348-.607c-.19-.086-.19-.389 0-.475l1.348-.607a.245.245 0 00.127-.142L3.031.397c.076-.214.346-.214.422 0zM29.525 2.373l.4 1.125a.183.183 0 00.094.106l1 .45c.141.064.141.289 0 .352l-1 .45a.177.177 0 00-.094.106l-.4 1.125c-.056.159-.256.159-.313 0l-.4-1.125a.183.183 0 00-.094-.106l-1-.45c-.141-.064-.141-.289 0-.352l1-.45a.177.177 0 00.094-.106l.4-1.125c.057-.159.256-.159.313 0z"/><path fill="var(--color7, #d88aba)" d="M12.88 2.025a.508.508 0 11-.163 1.003.508.508 0 01.163-1.003zM6.184 9.918a.89.89 0 11-1.768.218.89.89 0 011.768-.218z"/><path fill="var(--color8, #3c122c)" d="M13.439 13.645a.773.773 0 11-.354 1.505.773.773 0 01.354-1.505zM21.66 13.845a.775.775 0 11-1.097 1.095.775.775 0 011.097-1.095zM18.883 14.971a.377.377 0 00-.377-.377.934.934 0 01-.933-.933.377.377 0 00-.377-.377h-.018a.377.377 0 00-.377.377.934.934 0 01-.933.933.377.377 0 00-.016.753c.108.679.665 1.198 1.334 1.198s1.226-.519 1.333-1.198a.376.376 0 00.361-.376zm-1.694.821c-.308 0-.562-.266-.596-.607a1.71 1.71 0 00.596-.473c.159.2.363.363.596.473-.034.341-.288.607-.596.607zM14.376 25.312c-.79 0-1.606-.534-2.029-1.41a.377.377 0 01.679-.327c.375.777 1.158 1.179 1.745.896s.761-1.146.386-1.923a.377.377 0 01.679-.327c.555 1.151.224 2.465-.738 2.929a1.645 1.645 0 01-.722.163zM22.294 24.694c-.277 0-.561-.066-.838-.198-.502-.239-.922-.671-1.185-1.215a.377.377 0 01.679-.327c.188.39.483.696.83.862.32.152.644.165.915.034s.463-.392.543-.737c.087-.375.031-.796-.157-1.187a.377.377 0 01.679-.327c.262.544.338 1.142.212 1.683-.132.572-.47 1.014-.95 1.245a1.67 1.67 0 01-.728.165z"/><path fill="var(--color9, #fff)" d="M10.64 21.943a.628.628 0 01-.575-.877c.11-.253.23-.502.359-.741a.628.628 0 011.105.595 8.51 8.51 0 00-.312.644.628.628 0 01-.576.378zM9.807 27.028a.629.629 0 01-.624-.567 10.616 10.616 0 01.224-3.314.628.628 0 011.226.272 9.323 9.323 0 00-.2 2.921.627.627 0 01-.625.688z"/><path fill="var(--color8, #3c122c)" d="M27.261 27.754c.09-.637.136-1.287.136-1.937 0-1.425-.215-2.818-.638-4.142-.506-1.583-.686-3.178-.535-4.741a8.937 8.937 0 00-1.43-5.798c.084-.602.193-1.555.192-2.471-.001-1.58-.323-2.47-1.011-2.8-.531-.255-1.485-.343-3.679 1.709a8.766 8.766 0 00-.685-.216 3.564 3.564 0 00-.2-1.526 2.892 2.892 0 00-.13-2.127c.083-.759.027-1.69-.178-2.976a.813.813 0 00-1.578-.182c-.53 1.346-.897 2.528-1.12 3.605-.556.583-.82 1.411-.784 2.469-.15.202-.277.418-.381.646-.468.106-.928.25-1.376.432-2.281-2.176-3.264-2.095-3.81-1.833-.764.367-1.082 1.44-.998 3.377.053 1.24.254 2.387.262 2.436l.002.009.01.054a9.022 9.022 0 00-1.072 5.028 11.716 11.716 0 01-.569 4.695 13.528 13.528 0 00-.708 4.354c0 .569.037 1.136.106 1.696a1.653 1.653 0 01-.852-1.441v-1.542c0-1.18-.96-2.139-2.139-2.139s-2.139.96-2.139 2.139v1.542a5.934 5.934 0 005.928 5.928c.028 0 17.717-.025 17.751-.031 1.495-.039 2.697-1.081 2.697-2.357 0-.754-.42-1.425-1.071-1.858zM3.21 26.072v-.336h1.769v.336c0 .261.035.515.101.756H3.272a4.712 4.712 0 01-.062-.756zm.885-2.426c.488 0 .884.397.884.884v.453H3.21v-.453c0-.488.397-.884.884-.884zm3.788 7.099a4.682 4.682 0 01-4.422-3.164h1.944a2.92 2.92 0 001.93 1.342c.145.624.333 1.233.564 1.821h-.017zM18.42 8.54c.094.326.03.638-.02.879l-.01.047c-.067.067-.398.21-1.024.167-.485-.033-.837-.157-1.037-.265zm-.36-5.756c.009.327-.003.646-.045.933l-.001.009-.003.029-.255.113c.086-.348.186-.708.304-1.084zm-.664 2.151a.658.658 0 00.116-.136l.722-.32c.109.375.084.739-.073 1.123a.641.641 0 00-.03.094l-1.255.551c.027-.598.198-1.03.52-1.312zm-.661 2.298a.628.628 0 00.092-.142l1.463-.642c.118.44.106.876-.037 1.324l-.007.025-2.081.824c.052-.551.24-1.009.569-1.389zm8.813 23.483a.562.562 0 00-.092.008h-7.282c.21-.331.329-.71.329-1.112 0-1.301-1.249-2.359-2.783-2.359a.627.627 0 100 1.256c.828 0 1.528.506 1.528 1.104s-.7 1.104-1.528 1.104a.562.562 0 00-.092.008h-6.38a12.247 12.247 0 01-1.013-4.907c0-1.366.216-2.695.642-3.951.559-1.651.772-3.399.632-5.196a7.786 7.786 0 011.023-4.507.632.632 0 00.074-.434l-.053-.274c-.012-.072-.19-1.11-.241-2.208-.092-1.947.284-2.249.283-2.25.153-.05.977.189 2.691 1.889a.628.628 0 00.706.124 7.82 7.82 0 01.913-.354 5.175 5.175 0 00-.004.544c-.002.03-.002.062-.002.095.016.803.865 1.419 2.166 1.571.184.021.361.032.531.032 1.065 0 1.831-.411 2.009-1.111l.024-.113c.045-.216.116-.563.087-.972.163.055.324.115.484.181a.627.627 0 00.678-.13c1.627-1.583 2.41-1.804 2.55-1.758.003.002.311.245.302 1.74-.006.952-.136 1.948-.213 2.457a.632.632 0 00.105.453 7.701 7.701 0 011.352 5.169c-.168 1.733.031 3.498.589 5.244.384 1.2.578 2.465.578 3.759 0 .494-.029.989-.086 1.476a3.252 3.252 0 00-.507-.04.628.628 0 100 1.256c.828 0 1.528.506 1.528 1.104s-.7 1.104-1.528 1.104z"/></symbol><symbol id="icon-arrow-up" viewBox="0 0 32 32">
<path d="M27.414 12.586l-10-10c-0.781-0.781-2.047-0.781-2.828 0l-10 10c-0.781 0.781-0.781 2.047 0 2.828s2.047 0.781 2.828 0l6.586-6.586v19.172c0 1.105 0.895 2 2 2s2-0.895 2-2v-19.172l6.586 6.586c0.39 0.39 0.902 0.586 1.414 0.586s1.024-0.195 1.414-0.586c0.781-0.781 0.781-2.047 0-2.828z"></path>
</symbol><symbol id="icon-arrow-down" viewBox="0 0 32 32">
<path d="M27.414 19.414l-10 10c-0.781 0.781-2.047 0.781-2.828 0l-10-10c-0.781-0.781-0.781-2.047 0-2.828s2.047-0.781 2.828 0l6.586 6.586v-19.172c0-1.105 0.895-2 2-2s2 0.895 2 2v19.172l6.586-6.586c0.39-0.39 0.902-0.586 1.414-0.586s1.024 0.195 1.414 0.586c0.781 0.781 0.781 2.047 0 2.828z"></path>
</symbol></defs></svg>